<?xml version="1.0" standalone="no"?>
<!DOCTYPE svg PUBLIC "-//W3C//DTD SVG 20010904//EN"
 "http://www.w3.org/TR/2001/REC-SVG-20010904/DTD/svg10.dtd">
<svg version="1.0" xmlns="http://www.w3.org/2000/svg"
 width="512.000000pt" height="512.000000pt" viewBox="0 0 512.000000 512.000000"
 preserveAspectRatio="xMidYMid meet">

<g transform="translate(0.000000,512.000000) scale(0.100000,-0.100000)"
fill="#FCF2CB" stroke="none">
<path d="M2308 5013 c-20 -10 -459 -382 -975 -826 -1013 -873 -985 -846 -964
-925 13 -46 55 -89 102 -102 18 -6 120 -10 226 -10 l193 0 2 -832 3 -833 22
-41 c36 -67 70 -101 131 -131 l57 -28 808 -3 c444 -1 807 0 807 4 0 3 -18 33
-40 66 -21 33 -42 75 -46 94 l-6 34 -728 0 c-480 0 -738 4 -756 10 -56 22 -53
-24 -54 915 0 849 -1 871 -20 903 -11 17 -21 33 -22 34 -2 1 -86 4 -187 7
l-185 6 315 271 c173 149 402 346 509 439 254 219 570 491 733 631 l130 112
211 -182 c815 -704 757 -656 803 -656 30 0 50 7 70 24 l28 24 3 184 c2 171 4
184 23 201 30 24 91 22 115 -4 18 -20 19 -43 22 -352 2 -296 5 -333 20 -351 9
-10 98 -89 197 -174 99 -85 182 -159 183 -163 2 -5 -74 -9 -168 -9 l-172 0
-29 -29 -29 -29 0 -451 0 -451 100 0 100 0 0 379 0 380 213 3 c185 3 217 5
240 21 36 23 67 74 67 110 0 62 -25 90 -272 302 l-246 210 -3 305 c-4 284 -5
308 -25 350 -49 105 -126 160 -235 168 -163 11 -285 -95 -297 -260 -2 -37 -6
-68 -9 -68 -2 0 -183 154 -401 343 -219 189 -411 353 -428 365 -42 30 -92 36
-136 15z"/>
<path d="M3216 2279 c-31 -19 -472 -618 -485 -659 -14 -48 -14 -108 0 -151 14
-39 450 -631 482 -654 17 -12 60 -15 224 -15 l203 0 0 -319 0 -319 25 -30 c30
-36 69 -45 112 -27 61 26 63 40 63 385 l0 310 195 0 c118 0 203 4 217 11 23
11 452 577 482 637 26 52 23 153 -7 205 -39 71 -447 611 -470 624 -29 16
-1013 18 -1041 2z m1133 -443 c104 -140 194 -264 200 -274 13 -24 21 -12 -213
-324 l-177 -238 -422 0 -423 0 -197 264 c-108 146 -197 272 -197 281 0 8 89
135 197 280 l197 265 423 0 422 0 190 -254z"/>
<path d="M3160 1752 l-45 -7 -3 -208 -2 -208 57 3 58 3 3 73 c2 47 7 72 14 70
6 -2 20 -35 32 -73 l22 -70 57 -3 c43 -2 57 0 57 10 0 8 -12 54 -26 103 -24
84 -25 91 -10 116 34 57 12 139 -45 173 -33 20 -104 27 -169 18z m110 -132 c0
-15 -18 -30 -36 -30 -2 0 -4 13 -4 29 0 24 3 28 20 24 11 -3 20 -13 20 -23z"/>
<path d="M3420 1540 l0 -211 133 3 132 3 0 55 0 55 -72 3 c-70 3 -73 4 -73 27
0 24 3 25 65 25 l65 0 0 55 0 55 -65 0 c-51 0 -65 3 -65 15 0 12 14 15 70 15
l70 0 0 55 0 55 -130 0 -130 0 0 -210z"/>
<path d="M3710 1540 l0 -210 55 0 54 0 3 88 3 87 57 -87 58 -88 50 0 50 0 0
210 0 210 -60 0 -60 0 0 -82 -1 -83 -52 82 -52 83 -52 0 -53 0 0 -210z"/>
<path d="M4080 1695 c0 -54 0 -55 30 -55 l29 0 3 -152 3 -153 58 -3 57 -3 0
156 0 155 35 0 35 0 0 55 0 55 -125 0 -125 0 0 -55z"/>
</g>
</svg>
