<?xml version="1.0" standalone="no"?>
<!DOCTYPE svg PUBLIC "-//W3C//DTD SVG 20010904//EN"
 "http://www.w3.org/TR/2001/REC-SVG-20010904/DTD/svg10.dtd">
<svg version="1.0" xmlns="http://www.w3.org/2000/svg"
 width="50.000000pt" height="50.000000pt" viewBox="0 0 50.000000 50.000000"
 preserveAspectRatio="xMidYMid meet">

<g transform="translate(0.000000,50.000000) scale(0.100000,-0.100000)"
fill="#FCF2CB" stroke="none">
<path d="M25 470 c-22 -23 -26 -33 -17 -42 8 -8 15 -8 27 2 13 11 15 -5 15
-155 l0 -167 29 -29 29 -29 167 0 c150 0 166 -2 155 -15 -10 -12 -10 -19 -2
-27 16 -16 72 37 72 68 0 29 -58 80 -74 64 -7 -7 -7 -16 2 -30 12 -20 9 -20
-147 -20 -132 0 -162 3 -175 16 -13 13 -16 43 -16 175 0 156 0 159 20 147 15
-10 22 -10 32 0 9 9 6 18 -17 42 -16 16 -38 30 -50 30 -12 0 -34 -14 -50 -30z"/>
<path d="M174 489 c-13 -22 15 -28 146 -31 l135 -3 5 -140 c4 -123 7 -140 23
-143 16 -3 17 9 17 146 0 192 10 182 -178 182 -91 0 -143 -4 -148 -11z"/>
<path d="M342 378 c-27 -27 -4 -60 26 -36 9 7 4 -4 -11 -25 -15 -20 -25 -42
-22 -47 11 -17 75 -12 82 7 4 9 2 18 -4 20 -8 3 -8 12 0 33 8 22 8 32 -2 44
-16 19 -52 21 -69 4z"/>
<path d="M140 322 c-6 -2 -10 -37 -10 -78 0 -67 2 -74 20 -74 16 0 19 8 22 55
4 71 22 71 26 0 3 -46 6 -55 22 -55 16 0 19 9 22 55 4 72 22 71 26 -1 3 -46 6
-55 20 -52 26 5 29 97 5 127 -15 19 -29 23 -81 24 -34 1 -67 1 -72 -1z"/>
</g>
</svg>
